<mxfile host="drawio-plugin" modified="2021-04-25T14:11:20.797Z" agent="5.0 (Windows NT 6.2; Win64; x64) AppleWebKit/537.36 (KHTML, like Gecko) Chrome/87.0.4280.141 Safari/537.36" etag="48G_TpicbvoPHqOrh3Uu" version="13.7.9" type="embed"><diagram id="E39jPXINgWKJzHHYyr5n" name="Page-1"><mxGraphModel dx="595" dy="415" grid="1" gridSize="10" guides="1" tooltips="1" connect="1" arrows="1" fold="1" page="1" pageScale="1" pageWidth="850" pageHeight="1100" math="0" shadow="0"><root><mxCell id="0"/><mxCell id="1" parent="0"/><mxCell id="12" value="flush" style="edgeStyle=orthogonalEdgeStyle;rounded=0;orthogonalLoop=1;jettySize=auto;html=1;exitX=0.25;exitY=1;exitDx=0;exitDy=0;" parent="1" source="2" target="7" edge="1"><mxGeometry relative="1" as="geometry"/></mxCell><mxCell id="13" style="edgeStyle=orthogonalEdgeStyle;rounded=0;orthogonalLoop=1;jettySize=auto;html=1;exitX=0.75;exitY=1;exitDx=0;exitDy=0;" parent="1" source="2" target="8" edge="1"><mxGeometry relative="1" as="geometry"/></mxCell><mxCell id="16" value="" style="edgeStyle=orthogonalEdgeStyle;rounded=0;orthogonalLoop=1;jettySize=auto;html=1;" parent="1" source="2" target="4" edge="1"><mxGeometry relative="1" as="geometry"/></mxCell><mxCell id="19" value="通知变更" style="edgeStyle=orthogonalEdgeStyle;rounded=0;orthogonalLoop=1;jettySize=auto;html=1;entryX=0.25;entryY=1;entryDx=0;entryDy=0;" parent="1" source="2" target="11" edge="1"><mxGeometry relative="1" as="geometry"/></mxCell><mxCell id="2" value="处理器 0" style="rounded=0;whiteSpace=wrap;html=1;" parent="1" vertex="1"><mxGeometry x="88" y="108" width="120" height="50" as="geometry"/></mxCell><mxCell id="14" style="edgeStyle=orthogonalEdgeStyle;rounded=0;orthogonalLoop=1;jettySize=auto;html=1;exitX=0.25;exitY=1;exitDx=0;exitDy=0;entryX=0.5;entryY=0;entryDx=0;entryDy=0;" parent="1" source="3" target="9" edge="1"><mxGeometry relative="1" as="geometry"/></mxCell><mxCell id="15" style="edgeStyle=orthogonalEdgeStyle;rounded=0;orthogonalLoop=1;jettySize=auto;html=1;exitX=0.75;exitY=1;exitDx=0;exitDy=0;" parent="1" source="3" target="10" edge="1"><mxGeometry relative="1" as="geometry"/></mxCell><mxCell id="17" value="" style="edgeStyle=orthogonalEdgeStyle;rounded=0;orthogonalLoop=1;jettySize=auto;html=1;" parent="1" source="3" target="5" edge="1"><mxGeometry relative="1" as="geometry"/></mxCell><mxCell id="3" value="处理器 1" style="rounded=0;whiteSpace=wrap;html=1;" parent="1" vertex="1"><mxGeometry x="428" y="108" width="120" height="50" as="geometry"/></mxCell><mxCell id="4" value="寄存器" style="rounded=0;whiteSpace=wrap;html=1;" parent="1" vertex="1"><mxGeometry x="10" y="118" width="50" height="30" as="geometry"/></mxCell><mxCell id="5" value="寄存器" style="rounded=0;whiteSpace=wrap;html=1;" parent="1" vertex="1"><mxGeometry x="348" y="118" width="50" height="30" as="geometry"/></mxCell><mxCell id="22" value="refresh" style="edgeStyle=orthogonalEdgeStyle;rounded=0;orthogonalLoop=1;jettySize=auto;html=1;exitX=0.75;exitY=0;exitDx=0;exitDy=0;entryX=0.5;entryY=1;entryDx=0;entryDy=0;" parent="1" source="6" target="9" edge="1"><mxGeometry relative="1" as="geometry"/></mxCell><mxCell id="6" value="主内存" style="rounded=0;whiteSpace=wrap;html=1;" parent="1" vertex="1"><mxGeometry x="138" y="348" width="330" height="40" as="geometry"/></mxCell><mxCell id="18" value="flush" style="edgeStyle=orthogonalEdgeStyle;rounded=0;orthogonalLoop=1;jettySize=auto;html=1;entryX=0.25;entryY=0;entryDx=0;entryDy=0;exitX=0.5;exitY=1;exitDx=0;exitDy=0;" parent="1" source="7" target="6" edge="1"><mxGeometry relative="1" as="geometry"/></mxCell><mxCell id="24" value="refresh" style="edgeStyle=orthogonalEdgeStyle;rounded=0;orthogonalLoop=1;jettySize=auto;html=1;exitX=0.75;exitY=1;exitDx=0;exitDy=0;entryX=0.25;entryY=1;entryDx=0;entryDy=0;" parent="1" source="7" target="9" edge="1"><mxGeometry relative="1" as="geometry"/></mxCell><mxCell id="7" value="高速缓存" style="rounded=0;whiteSpace=wrap;html=1;" parent="1" vertex="1"><mxGeometry x="60" y="218" width="70" height="30" as="geometry"/></mxCell><mxCell id="8" value="写缓冲器" style="rounded=0;whiteSpace=wrap;html=1;" parent="1" vertex="1"><mxGeometry x="170" y="218" width="70" height="30" as="geometry"/></mxCell><mxCell id="9" value="高速缓存" style="rounded=0;whiteSpace=wrap;html=1;" parent="1" vertex="1"><mxGeometry x="388" y="218" width="70" height="30" as="geometry"/></mxCell><mxCell id="10" value="写缓冲器" style="rounded=0;whiteSpace=wrap;html=1;" parent="1" vertex="1"><mxGeometry x="498" y="218" width="70" height="30" as="geometry"/></mxCell><mxCell id="20" value="总线嗅探" style="edgeStyle=orthogonalEdgeStyle;rounded=0;orthogonalLoop=1;jettySize=auto;html=1;exitX=0.75;exitY=1;exitDx=0;exitDy=0;entryX=0.5;entryY=0;entryDx=0;entryDy=0;" parent="1" source="11" target="3" edge="1"><mxGeometry relative="1" as="geometry"/></mxCell><mxCell id="11" value="BUS 消息总线" style="rounded=0;whiteSpace=wrap;html=1;" parent="1" vertex="1"><mxGeometry x="76" y="20" width="484" height="30" as="geometry"/></mxCell><mxCell id="21" value="int i = 1;" style="text;html=1;strokeColor=none;fillColor=none;align=center;verticalAlign=middle;whiteSpace=wrap;rounded=0;" parent="1" vertex="1"><mxGeometry x="380" y="358" width="50" height="20" as="geometry"/></mxCell><mxCell id="25" value="&lt;h1&gt;备注&lt;/h1&gt;&lt;p&gt;flush：变量修改，强制刷新高速缓存或主内存&lt;/p&gt;&lt;p&gt;refresh：通过总线嗅探，发现变量修改，强制从其他处理器高速缓存或主内存中加载变量最新值到自己的高速缓存中&lt;/p&gt;" style="text;html=1;fillColor=none;spacing=5;spacingTop=-20;whiteSpace=wrap;overflow=hidden;rounded=0;strokeColor=#97D077;strokeWidth=2;" parent="1" vertex="1"><mxGeometry x="540" y="290" width="250" height="130" as="geometry"/></mxCell></root></mxGraphModel></diagram></mxfile>